<svg xmlns="http://www.w3.org/2000/svg" xml:space="preserve" fill-rule="evenodd" stroke-linejoin="round" stroke-miterlimit="2" clip-rule="evenodd" viewBox="0 0 4167 4167"><path fill="#fff" fill-opacity=".8" d="M2083.333 0c1149.823 0 2083.333 933.51 2083.333 2083.333s-933.511 2083.333-2083.333 2083.333S0 3233.155 0 2083.333 933.51 0 2083.333 0"/><path fill="#1ca098" d="M1284.902 2492.293h113.082v973.261h-113.082z"/><path fill="#1f4590" d="M1543.924 2492.293h-259.021V1217.769h113.082V2379.21h145.939v113.082ZM2261.62 2492.293h-604.613v-113.082h539.325z"/><path fill="#1ca098" d="m2240.824 2230.108 713.285 1235.446h-130.576l-713.285-1235.446h-453.241v1235.446h-113.082V1217.769h113.082v899.257h627.579a527 527 0 0 0 32.956-7.675 527 527 0 0 0 106.696-41.362c170.323-88.343 286.805-266.319 286.805-471.287 0-148.377-61.041-282.609-159.36-378.934-73.74-72.245-168.449-123.165-274.102-142.736h-992.677V961.95h981.767c105.377 14.197 202.663 54.06 285.352 113.082a645 645 0 0 1 144.775 142.736c78.067 106.144 124.207 237.193 124.207 378.934 0 214.217-105.389 404.013-267.103 520.323a641 641 0 0 1-74.633 46.279l73.44 127.201a783 783 0 0 1-103.75 46.464l-74.823-129.598a636 636 0 0 1-98.002 22.736h-35.307Z"/><path fill="#1f4590" d="M2552.707 2290.506a789 789 0 0 0 95.22-60.398 793 793 0 0 0 123.227-113.082c122.365-138.775 196.639-320.944 196.639-520.323 0-137.328-35.237-266.492-97.154-378.934-28.268-51.335-62.098-99.185-100.674-142.736a792.8 792.8 0 0 0-123.864-113.082c-108.345-79.641-237.786-132.226-378.325-147.755h-982.873V701.114h895.59c158.104 0 306.693 41.057 435.68 113.082 71.979 40.193 137.854 90.029 195.871 147.755a901.3 901.3 0 0 1 96.307 113.082 895.5 895.5 0 0 1 83.73 142.736c53.889 115.108 84.002 243.532 84.002 378.934 0 193.972-61.799 373.624-166.766 520.323a901.4 901.4 0 0 1-95.922 113.082c-58.344 58.298-124.683 108.597-197.221 149.102a891.337 891.337 0 0 1-112.324 52.835 888 888 0 0 1-124.471 38.046l-57.071-98.85a781 781 0 0 0 126.65-34.271 783 783 0 0 0 103.75-46.464Z"/><path fill="#1ca098" d="m2606.876 2384.329 624.246 1081.225h-130.576L2503.85 2432.046a891 891 0 0 0 103.027-47.716Z"/><path fill="#1ba098" d="M2083.333 167.56c1057.344 0 1915.773 858.429 1915.773 1915.773s-858.429 1915.773-1915.773 1915.773S167.56 3140.677 167.56 2083.333 1025.989 167.56 2083.333 167.56m0 83.333c-1011.351 0-1832.44 821.089-1832.44 1832.44s821.089 1832.44 1832.44 1832.44 1832.44-821.089 1832.44-1832.44-821.089-1832.44-1832.44-1832.44"/><path fill="#1f4590" d="M2083.333 0c1149.823 0 2083.333 933.51 2083.333 2083.333s-933.511 2083.333-2083.333 2083.333S0 3233.155 0 2083.333 933.51 0 2083.333 0m0 83.333c-1103.83 0-2000 896.17-2000 2000s896.17 2000 2000 2000 2000-896.17 2000-2000-896.17-2000-2000-2000"/></svg>